<svg width="34" height="29" viewBox="0 0 34 29" fill="none" xmlns="http://www.w3.org/2000/svg">
<path d="M13.4661 22.7857H23.8233C24.098 22.7857 24.3614 22.6766 24.5556 22.4823C24.7499 22.2881 24.859 22.0247 24.859 21.75V13.4643C24.859 13.1896 24.7499 12.9262 24.5556 12.7319C24.3614 12.5377 24.098 12.4286 23.8233 12.4286H22.7876V10.3571C22.7876 9.25839 22.3511 8.20463 21.5742 7.4277C20.7972 6.65076 19.7435 6.21429 18.6447 6.21429C17.546 6.21429 16.4922 6.65076 15.7153 7.4277C14.9383 8.20463 14.5019 9.25839 14.5019 10.3571V12.4286H13.4661C13.1915 12.4286 12.928 12.5377 12.7338 12.7319C12.5395 12.9262 12.4304 13.1896 12.4304 13.4643V21.75C12.4304 22.0247 12.5395 22.2881 12.7338 22.4823C12.928 22.6766 13.1915 22.7857 13.4661 22.7857ZM16.5733 10.3571C16.5733 9.80777 16.7915 9.28089 17.18 8.89242C17.5685 8.50395 18.0953 8.28571 18.6447 8.28571C19.1941 8.28571 19.721 8.50395 20.1094 8.89242C20.4979 9.28089 20.7161 9.80777 20.7161 10.3571V12.4286H16.5733V10.3571ZM14.5019 14.5H22.7876V20.7143H14.5019V14.5ZM33.1447 14.5C33.1403 18.3443 31.6112 22.0299 28.8929 24.7482C26.1746 27.4665 22.489 28.9956 18.6447 29C14.8004 28.9956 11.1148 27.4665 8.39651 24.7482C5.67818 22.0299 4.1491 18.3443 4.14471 14.5V11.8216L1.77085 14.1976C1.67449 14.2937 1.56013 14.3699 1.43431 14.4218C1.30849 14.4737 1.17367 14.5002 1.03757 14.5C0.901464 14.5002 0.766648 14.4737 0.640826 14.4218C0.515004 14.3699 0.400642 14.2937 0.304281 14.1976C0.207829 14.1014 0.131303 13.9871 0.0790898 13.8612C0.0268765 13.7354 0 13.6005 0 13.4643C0 13.3281 0.0268765 13.1932 0.0790898 13.0673C0.131303 12.9415 0.207829 12.8272 0.304281 12.731L4.44714 8.58813C4.54428 8.49206 4.65889 8.41544 4.78478 8.36236C5.03837 8.25875 5.32248 8.25875 5.57607 8.36236C5.70196 8.41544 5.81656 8.49206 5.91371 8.58813L10.0566 12.731C10.153 12.8272 10.2295 12.9415 10.2818 13.0673C10.334 13.1932 10.3608 13.3281 10.3608 13.4643C10.3608 13.6005 10.334 13.7354 10.2818 13.8612C10.2295 13.9871 10.153 14.1014 10.0566 14.1976C9.96021 14.2937 9.84585 14.3699 9.72002 14.4218C9.5942 14.4737 9.45938 14.5002 9.32328 14.5C9.18718 14.5002 9.05236 14.4737 8.92654 14.4218C8.80072 14.3699 8.68636 14.2937 8.59 14.1976L6.21614 11.8216V14.5C6.21943 17.7953 7.52992 20.9546 9.86002 23.2847C12.1901 25.6148 15.3495 26.9253 18.6447 26.9286C21.94 26.9253 25.0993 25.6148 27.4294 23.2847C29.7595 20.9546 31.07 17.7953 31.0733 14.5C31.07 11.2047 29.7595 8.04539 27.4294 5.7153C25.0993 3.3852 21.94 2.07472 18.6447 2.07143C18.37 2.07143 18.1066 1.96229 17.9123 1.76806C17.7181 1.57383 17.609 1.3104 17.609 1.03571C17.609 0.761026 17.7181 0.497603 17.9123 0.303369C18.1066 0.109135 18.37 0 18.6447 0C22.489 0.00438596 26.1746 1.53348 28.8929 4.25181C31.6112 6.97014 33.1403 10.6557 33.1447 14.5Z" fill="#383432"/>
</svg>
