<svg width="35" height="14" viewBox="0 0 35 14" fill="none" xmlns="http://www.w3.org/2000/svg">
<path d="M27.9818 3.68328e-05C26.4349 0.00506018 24.9332 0.522722 23.7117 1.47204C22.4903 2.42135 21.618 3.74877 21.2312 5.24663H12.2421V3.49777C12.2421 3.03394 12.0578 2.58911 11.7298 2.26113C11.4018 1.93316 10.957 1.7489 10.4932 1.7489C10.0294 1.7489 9.58453 1.93316 9.25656 2.26113C8.92858 2.58911 8.74432 3.03394 8.74432 3.49777V5.24663H5.24659V3.49777C5.24659 3.03394 5.06234 2.58911 4.73436 2.26113C4.40639 1.93316 3.96156 1.7489 3.49773 1.7489C3.0339 1.7489 2.58907 1.93316 2.2611 2.26113C1.93312 2.58911 1.74887 3.03394 1.74887 3.49777V5.24663C1.28504 5.24663 0.840206 5.43089 0.512231 5.75886C0.184255 6.08684 0 6.53167 0 6.9955C0 7.45932 0.184255 7.90415 0.512231 8.23213C0.840206 8.56011 1.28504 8.74436 1.74887 8.74436H21.2312C21.5586 10.0121 22.2351 11.1626 23.184 12.0649C24.1328 12.9671 25.3159 13.585 26.5985 13.8482C27.8811 14.1113 29.2119 14.0092 30.4393 13.5535C31.6668 13.0978 32.7418 12.3067 33.5419 11.2703C34.342 10.2339 34.8352 8.99368 34.9654 7.69081C35.0955 6.38795 34.8574 5.07471 34.2781 3.90048C33.6988 2.72625 32.8016 1.73816 31.6885 1.04863C30.5754 0.359095 29.2912 -0.00421132 27.9818 3.68328e-05ZM27.9818 10.4932C27.2901 10.4932 26.6138 10.2881 26.0386 9.90375C25.4634 9.51942 25.0151 8.97315 24.7504 8.33402C24.4856 7.69489 24.4164 6.99162 24.5513 6.31312C24.6863 5.63463 25.0194 5.01139 25.5086 4.52223C25.9977 4.03306 26.621 3.69993 27.2995 3.56497C27.978 3.43001 28.6812 3.49928 29.3204 3.76402C29.9595 4.02875 30.5058 4.47706 30.8901 5.05226C31.2744 5.62746 31.4796 6.30371 31.4796 6.9955C31.4796 7.92315 31.1111 8.81281 30.4551 9.46876C29.7992 10.1247 28.9095 10.4932 27.9818 10.4932Z" fill="#383432"/>
</svg>
