<svg width="800" height="800" viewBox="0 0 800 800" fill="none" xmlns="http://www.w3.org/2000/svg">
<path d="M0 400V350.4C0 294.933 19.4667 247.733 58.4 208.8C97.3333 169.867 144.533 150.4 200 150.4C217.067 150.4 235.2 153.333 254.4 159.2C264 113.333 287.2 75.4667 324 45.6C360.8 15.7333 402.933 0.533333 450.4 0C505.333 0 552.267 19.7333 591.2 59.2C630.133 98.6667 649.867 145.6 650.4 200C650.4 214.933 647.733 232 642.4 251.2C646.133 250.667 648.8 250.4 650.4 250.4C691.467 250.4 726.667 265.067 756 294.4C785.333 323.733 800 358.933 800 400V450.4C800 492 785.333 527.2 756 556C726.667 584.8 691.467 599.467 650.4 600H640.8C645.6 586.667 648.533 574.667 649.6 564C651.2 542.133 648.533 520.8 641.6 500C634.667 479.2 622.933 460.8 606.4 444.8L506.4 344.8C477.067 314.933 441.6 300 400 300C358.4 300 323.2 314.667 294.4 344L194.4 444C178.4 460 166.667 478.667 159.2 500C151.733 521.333 149.067 542.933 151.2 564.8C151.733 574.4 153.867 584.8 157.6 596C112.267 585.867 74.6667 562.667 44.8 526.4C14.9333 490.133 0 448 0 400ZM250.4 555.2C248.8 539.2 253.6 525.867 264.8 515.2L364.8 415.2C374.933 405.067 386.667 400 400 400C413.867 400 425.6 405.067 435.2 415.2L535.2 515.2C546.4 525.867 551.467 539.2 550.4 555.2C549.867 560 548.533 564.8 546.4 569.6C542.667 578.667 536.533 586.133 528 592C519.467 597.867 510.133 600.533 500 600H450.4V750.4C450.4 764.267 445.333 776 435.2 785.6C425.067 795.2 413.333 800 400 800C386.667 800 374.933 795.2 364.8 785.6C354.667 776 349.867 764.267 350.4 750.4V600H300C289.867 600 280.8 597.333 272.8 592C264.8 586.667 258.4 579.2 253.6 569.6C252 564.8 250.933 560 250.4 555.2Z" fill="#94A3B8"/>
</svg>
